# xmcd
#
# Track frame offsets: 
#        150
#        18910
#        33372
#        50795
#        67110
#        94542
#        113815
#        134735
#        169595
#        217087
#
# Disc length: 3203 seconds
#
# Revision: 1
# Processed by: cddbd v1.5.2PL0 Copyright (c) Steve Scherf et al.
# Submitted via: ExactAudioCopy v1.1
#
DISCID=900c810a
DTITLE=Eric Clapton - From The Cradle To The Fillmore West - Disc 2
DYEAR=1995
DGENRE=Blues
TTITLE0=Sinner's Prayer (live)
TTITLE1=I Can't Judge Nobody (live)
TTITLE2=Someday After A While (live)
TTITLE3=I'm Tore Down (live)
TTITLE4=Have You Ever Loved A Woman (live)
TTITLE5=Cross Cut Saw (live)
TTITLE6=Five Long Years (live)
TTITLE7=Crossroads (live)
TTITLE8=Groaning The Blues (live)
TTITLE9=Ain't Nobody's Business (live)
EXTD=
EXTT0=
EXTT1=
EXTT2=
EXTT3=
EXTT4=
EXTT5=
EXTT6=
EXTT7=
EXTT8=
EXTT9=
PLAYORDER=
